<svg xmlns="http://www.w3.org/2000/svg" width="512" height="512" viewBox="0 0 512 512">
  <defs>
    <linearGradient id="bg-autochess" x1="0%" y1="0%" x2="100%" y2="100%">
      <stop offset="0%" stop-color="#0891b2"/>
      <stop offset="100%" stop-color="#0e7490"/>
    </linearGradient>
    <linearGradient id="accent-autochess" x1="0%" y1="0%" x2="100%" y2="100%">
      <stop offset="0%" stop-color="#67e8f9" stop-opacity="0.4"/>
      <stop offset="100%" stop-color="white" stop-opacity="0.1"/>
    </linearGradient>
    <radialGradient id="glow-autochess" cx="50%" cy="45%" r="40%">
      <stop offset="0%" stop-color="#67e8f9" stop-opacity="0.25"/>
      <stop offset="100%" stop-color="#67e8f9" stop-opacity="0"/>
    </radialGradient>
    <filter id="textShadow-autochess" x="-20%" y="-20%" width="140%" height="140%">
      <feDropShadow dx="0" dy="3" stdDeviation="6" flood-color="rgba(0,0,0,0.4)"/>
    </filter>
    <clipPath id="roundClip">
      <rect width="512" height="512" rx="48" ry="48"/>
    </clipPath>
    <pattern id="pattern-autochess" width="24" height="24" patternUnits="userSpaceOnUse">
      <circle cx="12" cy="12" r="1.5" fill="#155e75" opacity="0.2"/>
    </pattern>
  </defs>

  <!-- Base shape with rounded corners -->
  <rect width="512" height="512" rx="48" ry="48" fill="#0891b2"/>

  <g clip-path="url(#roundClip)">
    <!-- Main gradient background -->
    <rect width="512" height="512" fill="url(#bg-autochess)"/>

    <!-- Decorative background shapes -->
    <circle cx="-103" cy="-11" r="77" fill="#67e8f9" opacity="0.1"/><rect x="-142" y="-49" width="76" height="76" rx="4" fill="#67e8f9" opacity="0.1" transform="rotate(45 -104 -11)"/><polygon points="-40.0480947161671,-48.49999999999999 -40.0480947161671,26.499999999999993 -105,64 -169.9519052838329,26.499999999999993 -169.9519052838329,-48.49999999999998 -105.00000000000009,-86" fill="#67e8f9" opacity="0.1"/><circle cx="-106" cy="-11" r="74" fill="#67e8f9" opacity="0.1"/>

    <!-- Large soft glow -->
    <ellipse cx="256" cy="220" rx="220" ry="180" fill="url(#glow-autochess)"/>

    <!-- Pattern overlay -->
    <rect width="512" height="512" fill="url(#pattern-autochess)"/>

    <!-- Secondary gradient accent strip -->
    <rect x="0" y="380" width="512" height="132" fill="url(#accent-autochess)" opacity="0.3"/>

    <!-- Subtle corner accent -->
    <circle cx="512" cy="0" r="160" fill="white" opacity="0.04"/>
    <circle cx="0" cy="512" r="120" fill="black" opacity="0.08"/>

    <!-- Main initials text -->
    <text x="256" y="240" text-anchor="middle" dominant-baseline="central"
      font-family="'SF Pro Display', 'Inter', 'Segoe UI', Arial, sans-serif"
      font-size="140"
      font-weight="800"
      fill="white"
      letter-spacing="8"
      filter="url(#textShadow-autochess)"
      transform="rotate(-3, 256, 240)">
      AC
    </text>

    <!-- Category label bar -->
    <rect x="140" y="380" width="232" height="36" rx="18" fill="black" opacity="0.3"/>
    <text x="256" y="398" text-anchor="middle" dominant-baseline="central"
      font-family="'SF Pro Text', 'Inter', 'Segoe UI', Arial, sans-serif"
      font-size="13" font-weight="600"
      fill="white" opacity="0.9"
      letter-spacing="2">
      CARD
    </text>

    <!-- Game name at bottom -->
    <text x="256" y="450" text-anchor="middle" dominant-baseline="central"
      font-family="'SF Pro Text', 'Inter', 'Segoe UI', Arial, sans-serif"
      font-size="16" font-weight="500"
      fill="white" opacity="0.8"
      letter-spacing="0.5">
      Auto Chess
    </text>

    <!-- Top highlight border -->
    <rect x="0" y="0" width="512" height="3" fill="white" opacity="0.2"/>
  </g>

  <!-- Outer border for polish -->
  <rect width="512" height="512" rx="48" ry="48" fill="none" stroke="white" stroke-width="1" opacity="0.1"/>
</svg>